{"asset":{"generator":"Khronos glTF Spline I/O v0.0.1","version":"2.0"},"scenes":[{"nodes":[0]}],"nodes":[{"name":"Untitled","children":[1,2,3]},{"name":"Cube","matrix":[-1,0,0,0,0,-1,0,0,0,0,1,0,0,0,0,1],"mesh":0},{"name":"Default Camera","camera":0,"translation":[575.9999999999999,576,576],"rotation":[-0.27984814233312133,0.3647051996310007,0.11591689595929508,0.8804762392171493],"children":[4]},{"name":"Rectangle","matrix":[1,0,0,0,0,1,0,0,0,0,1,0,0,0,-1,1],"mesh":1},{"name":"Default Directional Light","translation":[850000,1300000,1000000],"rotation":[-0.45895513091666534,0.1367267597249462,-0.25064115022945466,0.8413352451859125],"extensions":{"KHR_lights_punctual":{"light":0}}}],"cameras":[{"type":"orthographic","orthographic":{"xmag":1266,"ymag":643,"zfar":50000,"znear":-50000}}],"meshes":[{"primitives":[{"attributes":{"POSITION":1,"NORMAL":2,"TEXCOORD_0":3},"indices":0}]},{"primitives":[{"attributes":{"POSITION":5,"NORMAL":6,"TEXCOORD_0":7},"indices":4}]}],"buffers":[{"uri":"data:application/octet-stream;base64,","byteLength":840},{"uri":"data:application/octet-stream;base64,","byteLength":140}],"bufferViews":[{"buffer":0,"byteOffset":0,"byteLength":72,"target":34963},{"buffer":0,"byteOffset":72,"byteLength":288,"target":34962},{"buffer":0,"byteOffset":360,"byteLength":288,"target":34962},{"buffer":0,"byteOffset":648,"byteLength":192,"target":34962},{"buffer":1,"byteOffset":0,"byteLength":12,"target":34963},{"buffer":1,"byteOffset":12,"byteLength":48,"target":34962},{"buffer":1,"byteOffset":60,"byteLength":48,"target":34962},{"buffer":1,"byteOffset":108,"byteLength":32,"target":34962}],"accessors":[{"bufferView":0,"byteOffset":0,"componentType":5123,"count":36,"type":"SCALAR","min":[0],"max":[23]},{"bufferView":1,"byteOffset":0,"componentType":5126,"count":24,"type":"VEC3","min":[-42,-38.5,-132],"max":[42,38.5,132]},{"bufferView":2,"byteOffset":0,"componentType":5126,"count":24,"type":"VEC3","min":[-1,-1,-1],"max":[1,1,1]},{"bufferView":3,"byteOffset":0,"componentType":5126,"count":24,"type":"VEC2","min":[0,0],"max":[1,1]},{"bufferView":4,"byteOffset":0,"componentType":5123,"count":6,"type":"SCALAR","min":[0],"max":[3]},{"bufferView":5,"byteOffset":0,"componentType":5126,"count":4,"type":"VEC3","min":[-160,-160,0],"max":[160,160,0]},{"bufferView":6,"byteOffset":0,"componentType":5126,"count":4,"type":"VEC3","min":[0,0,1],"max":[0,0,1]},{"bufferView":7,"byteOffset":0,"componentType":5126,"count":4,"type":"VEC2","min":[0,0],"max":[1,1]}],"extensions":{"KHR_lights_punctual":{"lights":[{"type":"directional","name":"Default Directional Light","color":[1,1,1],"intensity":0.75}]}},"extensionsUsed":["KHR_lights_punctual"]}