{"asset":{"generator":"Khronos glTF Spline I/O v0.0.1","version":"2.0"},"scenes":[{"nodes":[0]}],"nodes":[{"name":"Untitled","children":[1,2,3]},{"name":"Icosahedron","matrix":[-0.9612616959383226,0,-0.27563735581700016,0,0,1,0,0,0.27563735581700016,0,-0.9612616959383226,0,8.508490806907574,-10.95572620920575,0,1],"mesh":0},{"name":"Default Camera","camera":0,"translation":[576,576,576.0000000000001],"rotation":[-0.2798481423331213,0.3647051996310007,0.11591689595929505,0.8804762392171493],"children":[4]},{"name":"Rectangle","matrix":[1,0,0,0,0,1,0,0,0,0,1,0,0,0,-1,1],"mesh":1},{"name":"Default Directional Light","translation":[850000,1300000,1000000],"rotation":[-0.45895513091666534,0.1367267597249462,-0.25064115022945466,0.8413352451859125],"extensions":{"KHR_lights_punctual":{"light":0}}}],"cameras":[{"type":"orthographic","orthographic":{"xmag":1266,"ymag":643,"zfar":50000,"znear":-50000}}],"meshes":[{"primitives":[{"attributes":{"POSITION":0,"NORMAL":1,"TEXCOORD_0":2}}]},{"primitives":[{"attributes":{"POSITION":4,"NORMAL":5,"TEXCOORD_0":6},"indices":3}]}],"buffers":[{"uri":"data:application/octet-stream;base64,","byteLength":1920},{"uri":"data:application/octet-stream;base64,","byteLength":140}],"bufferViews":[{"buffer":0,"byteOffset":0,"byteLength":720,"target":34962},{"buffer":0,"byteOffset":720,"byteLength":720,"target":34962},{"buffer":0,"byteOffset":1440,"byteLength":480,"target":34962},{"buffer":1,"byteOffset":0,"byteLength":12,"target":34963},{"buffer":1,"byteOffset":12,"byteLength":48,"target":34962},{"buffer":1,"byteOffset":60,"byteLength":48,"target":34962},{"buffer":1,"byteOffset":108,"byteLength":32,"target":34962}],"accessors":[{"bufferView":0,"byteOffset":0,"componentType":5126,"count":60,"type":"VEC3","min":[-113.9872055053711,-105.05537414550781,-113.9872055053711],"max":[113.9872055053711,105.05537414550781,113.9872055053711]},{"bufferView":1,"byteOffset":0,"componentType":5126,"count":60,"type":"VEC3","min":[-0.923805296421051,-0.9432580471038818,-0.9341723918914795],"max":[0.923805296421051,0.9432580471038818,0.9341723918914795]},{"bufferView":2,"byteOffset":0,"componentType":5126,"count":60,"type":"VEC2","min":[0,0.17620819807052612],"max":[1.0881041288375854,0.8237918019294739]},{"bufferView":3,"byteOffset":0,"componentType":5123,"count":6,"type":"SCALAR","min":[0],"max":[3]},{"bufferView":4,"byteOffset":0,"componentType":5126,"count":4,"type":"VEC3","min":[-160,-160,0],"max":[160,160,0]},{"bufferView":5,"byteOffset":0,"componentType":5126,"count":4,"type":"VEC3","min":[0,0,1],"max":[0,0,1]},{"bufferView":6,"byteOffset":0,"componentType":5126,"count":4,"type":"VEC2","min":[0,0],"max":[1,1]}],"extensions":{"KHR_lights_punctual":{"lights":[{"type":"directional","name":"Default Directional Light","color":[1,1,1],"intensity":0.75}]}},"extensionsUsed":["KHR_lights_punctual"]}